<svg xmlns="http://www.w3.org/2000/svg" viewBox="0 0 351.63 39.01"><defs><style>.cls-1{fill:#54565a;}.cls-2{fill:#ea6852;}.cls-3{fill:#8e9c9c;}.cls-4{fill:#fff;}</style></defs><g id="Capa_2" data-name="Capa 2"><g id="popup"><polygon class="cls-1" points="23.2 10.06 23.2 10.06 23.2 10.06 23.2 10.06"/><polygon class="cls-2" points="23.2 10.06 23.2 10.06 23.2 10.06 23.2 10.06"/><path class="cls-3" d="M31.53,20.3c.55.51,1.12,1,1.74,1.58C42.08,29.72,57.2,33.26,57.2,33.26h0V0Z"/><path class="cls-4" d="M41.82,33.26H0l23.2-23.2v4a19.11,19.11,0,0,0,3.41,10.13c3.32,5,8.79,9.07,15.21,9.07"/><path class="cls-2" d="M57.2,33.26S42.08,29.72,33.27,21.88c-.62-.55-1.19-1.07-1.74-1.58-7.17-6.74-8.33-10.23-8.33-10.24h0v4a19.11,19.11,0,0,0,3.41,10.13c3.32,5,8.79,9.07,15.21,9.07Z"/><path class="cls-4" d="M112.3,12.48a9.14,9.14,0,0,0-6.81,2.76,9.57,9.57,0,0,0-2.68,6.89,9,9,0,0,0,2.91,6.93,10.86,10.86,0,0,0,7.6,2.67,13.8,13.8,0,0,0,7-1.81l-.55-3.46a14.2,14.2,0,0,1-6.46,1.73c-3.58,0-5.94-1.69-6.61-4.68h14.37C122.3,17.64,118.16,12.37,112.3,12.48Zm-5.47,8c.27-2.68,2.56-4.49,5.59-4.49s5,1.77,5.23,4.49Z"/><polygon class="cls-4" points="147.76 31.34 151.54 31.34 151.54 12.88 147.76 14.59 147.76 31.34"/><path class="cls-4" d="M148,5a2.62,2.62,0,0,0,0,3.39A2.39,2.39,0,1,0,151.34,5,2.45,2.45,0,0,0,148,5Z"/><path class="cls-4" d="M165.47,28.19c-4,0-6.69-2.52-6.69-6.18,0-3.5,2.68-6,6.65-6a12,12,0,0,1,5.12,1.1l.39-3.39a12.75,12.75,0,0,0-5.51-1.26,10.86,10.86,0,0,0-7.6,2.68A8.9,8.9,0,0,0,155,22a9.27,9.27,0,0,0,2.91,7,10.86,10.86,0,0,0,7.6,2.67,15.53,15.53,0,0,0,5.75-1.22l-.59-3.46A12.42,12.42,0,0,1,165.47,28.19Z"/><path class="cls-4" d="M182.16,12.48a9.47,9.47,0,0,0-7,2.8,9.31,9.31,0,0,0-2.79,6.85,9.22,9.22,0,0,0,2.79,6.81,10.19,10.19,0,0,0,14,0A9.21,9.21,0,0,0,192,22.13a9.21,9.21,0,0,0-2.84-6.85A9.55,9.55,0,0,0,182.16,12.48Zm4.29,13.94a5.82,5.82,0,0,1-4.29,1.73,5.85,5.85,0,0,1-6-6,5.85,5.85,0,0,1,6-6.06,5.82,5.82,0,0,1,4.29,1.73,5.91,5.91,0,0,1,1.73,4.33A5.88,5.88,0,0,1,186.45,26.42Z"/><path class="cls-4" d="M219.15,12.48a7.91,7.91,0,0,0-6.3,2.62l-.27.37V12.88L208.8,14.6V39l3.78-.08V28.82a7.88,7.88,0,0,0,6.57,2.91,9,9,0,0,0,6.66-2.63,9.37,9.37,0,0,0,2.63-6.89,9.69,9.69,0,0,0-2.67-7A8.78,8.78,0,0,0,219.15,12.48ZM223,26.58a5.67,5.67,0,0,1-4.25,1.73,5.82,5.82,0,0,1-4.37-1.77,6,6,0,0,1-1.73-4.33,6.33,6.33,0,0,1,1.73-4.45,5.71,5.71,0,0,1,4.33-1.85A5.51,5.51,0,0,1,223,17.76a6.44,6.44,0,0,1,1.65,4.45A6.17,6.17,0,0,1,223,26.58Z"/><path class="cls-4" d="M204,12.48a5,5,0,0,0-4.8,2.92V12.88l-3.82,1.74V31.34h3.82v-10c0-4.17,2.64-5.27,4.68-5.27a7,7,0,0,1,2.25.43l.39-3.5-.28-.12A7.92,7.92,0,0,0,204,12.48Z"/><path class="cls-4" d="M102.66,12.84a8.07,8.07,0,0,0-2.25-.36,5,5,0,0,0-4.8,2.92V12.88l-3.82,1.74V31.34h3.82v-10c0-4.17,2.64-5.27,4.68-5.27a7,7,0,0,1,2.25.43l.39-3.5Z"/><path class="cls-4" d="M139.3,15.46,139,15.1a8,8,0,0,0-6.32-2.62,9,9,0,0,0-6.61,2.68A9.27,9.27,0,0,0,123.47,22a9.69,9.69,0,0,0,2.64,7,8.88,8.88,0,0,0,6.61,2.71,7.9,7.9,0,0,0,6.58-2.91v2.52h3.82V4.3L139.3,6Zm-1.77,11a5.74,5.74,0,0,1-4.37,1.85,5.45,5.45,0,0,1-4.25-1.81A6.43,6.43,0,0,1,127.25,22a6,6,0,0,1,1.66-4.33,5.58,5.58,0,0,1,4.29-1.77,5.79,5.79,0,0,1,4.33,1.77A6,6,0,0,1,139.26,22,6.33,6.33,0,0,1,137.53,26.46Z"/><path class="cls-4" d="M88,10.32l.39-3.82a20.78,20.78,0,0,0-8.11-1.65c-7,0-12.25,3.49-14.12,8.9C71.82,8.44,80,8.7,80,8.7A19.92,19.92,0,0,1,88,10.32Z"/><path class="cls-4" d="M88.13,26.18a16.14,16.14,0,0,1-7.36,1.73,11.83,11.83,0,0,1-8-2.67,8.79,8.79,0,0,1-3.07-7A10.61,10.61,0,0,1,70,15.9a16.1,16.1,0,0,0-4.62,2.79,12.39,12.39,0,0,0,4.1,9.3c2.79,2.48,6.37,3.7,10.82,3.7a24,24,0,0,0,6.58-.94c.51-.2,1.14-.43,1.85-.75Z"/><path class="cls-4" d="M303,5a2.62,2.62,0,0,0,0,3.39,2.45,2.45,0,0,0,3.39,0,2.47,2.47,0,0,0,0-3.39A2.47,2.47,0,0,0,303,5Z"/><polygon class="cls-4" points="302.82 31.34 306.6 31.34 306.6 11.83 302.82 13.55 302.82 31.34"/><path class="cls-4" d="M319.31,28.27a2.68,2.68,0,0,1-3-2.91V16.11h5.44V12.88h-5.48V7.43l-3.73,1.7v3.75h-3.31v3.23h3.27v9.68c0,3.74,2.36,5.94,6.29,5.94a10.33,10.33,0,0,0,4-.63l-.47-3.26A11.56,11.56,0,0,1,319.31,28.27Z"/><polygon class="cls-4" points="347.85 6.04 347.85 31.34 351.63 31.34 351.63 4.3 347.85 6.04"/><path class="cls-4" d="M339.39,15.51c-.18-.27-.36-.5-.48-.65a8,8,0,0,0-6.09-2.38,9,9,0,0,0-6.62,2.68A9.27,9.27,0,0,0,323.56,22a9.69,9.69,0,0,0,2.64,7,8.88,8.88,0,0,0,6.62,2.71,7.89,7.89,0,0,0,6.57-2.91v2.52h3.82V12.88h-3.82Zm-1.77,11a5.74,5.74,0,0,1-4.37,1.85A5.45,5.45,0,0,1,329,26.5,6.48,6.48,0,0,1,327.34,22,6,6,0,0,1,329,17.68a5.58,5.58,0,0,1,4.29-1.77,5.79,5.79,0,0,1,4.33,1.77A6,6,0,0,1,339.35,22,6.33,6.33,0,0,1,337.62,26.46Z"/><path class="cls-4" d="M271.92,15.46c0-.06-.08-.15-.12-.2a7.93,7.93,0,0,0-6.45-2.78,9,9,0,0,0-6.61,2.68A9.27,9.27,0,0,0,256.1,22a9.69,9.69,0,0,0,2.64,7,8.86,8.86,0,0,0,6.61,2.71,7.88,7.88,0,0,0,6.57-2.91v2.52h3.82V12.88h-3.82Zm-1.77,11a5.74,5.74,0,0,1-4.37,1.85,5.45,5.45,0,0,1-4.25-1.81A6.47,6.47,0,0,1,259.88,22a6,6,0,0,1,1.65-4.33,5.58,5.58,0,0,1,4.29-1.77,5.79,5.79,0,0,1,4.33,1.77A6,6,0,0,1,271.88,22,6.33,6.33,0,0,1,270.15,26.46Z"/><path class="cls-4" d="M290.73,12.48a8,8,0,0,0-6.14,2.44c-.12.14-.27.35-.43.58V12.88l-3.78,1.75v24.3h3.78V28.82a7.89,7.89,0,0,0,6.57,2.91,9,9,0,0,0,6.66-2.63A9.37,9.37,0,0,0,300,22.21a9.69,9.69,0,0,0-2.67-7A8.78,8.78,0,0,0,290.73,12.48Zm3.82,14.1a5.67,5.67,0,0,1-4.25,1.73,5.82,5.82,0,0,1-4.37-1.77,6,6,0,0,1-1.73-4.33,6.33,6.33,0,0,1,1.73-4.45,5.71,5.71,0,0,1,4.33-1.85,5.51,5.51,0,0,1,4.29,1.85,6.45,6.45,0,0,1,1.66,4.45A6.18,6.18,0,0,1,294.55,26.58Z"/><path class="cls-4" d="M254.09,10.32l.4-3.82a20.78,20.78,0,0,0-8.11-1.65c-7,0-12.26,3.49-14.12,8.9,5.68-5.31,13.82-5.05,13.82-5.05A19.89,19.89,0,0,1,254.09,10.32Z"/><path class="cls-4" d="M254.25,26.18a16.14,16.14,0,0,1-7.36,1.73,11.81,11.81,0,0,1-8-2.67,8.75,8.75,0,0,1-3.07-7,10.61,10.61,0,0,1,.29-2.37,16,16,0,0,0-4.62,2.79,12.41,12.41,0,0,0,4.09,9.3c2.8,2.48,6.38,3.7,10.83,3.7a23.8,23.8,0,0,0,6.57-.94c.51-.2,1.14-.43,1.85-.75Z"/></g></g></svg>